<?xml version="1.0" encoding="UTF-8" standalone="no"?>
<!DOCTYPE svg PUBLIC "-//W3C//DTD SVG 1.1//EN"
 "http://www.w3.org/Graphics/SVG/1.1/DTD/svg11.dtd">
<!-- Generated by graphviz version 2.50.0 (20211204.2007)
 -->
<!-- Title: DFA Pages: 1 -->
<svg width="568pt" height="426pt"
 viewBox="0.00 0.00 568.00 426.00" xmlns="http://www.w3.org/2000/svg" xmlns:xlink="http://www.w3.org/1999/xlink">
<g id="graph0" class="graph" transform="scale(1 1) rotate(0) translate(4 422)">
<title>DFA</title>
<polygon fill="white" stroke="transparent" points="-4,4 -4,-422 564,-422 564,4 -4,4"/>
<!-- 0 -->
<g id="node1" class="node">
<title>0</title>
<polygon fill="#ff3030" stroke="black" stroke-width="4.91" points="139.5,-345 11.5,-345 11.5,-217 139.5,-217 139.5,-345"/>
<text text-anchor="middle" x="75.5" y="-307.3" font-family="Times,serif" font-size="14.00">0 #134</text>
<text text-anchor="middle" x="75.5" y="-292.3" font-family="Times,serif" font-size="14.00">fin: </text>
<text text-anchor="middle" x="75.5" y="-277.3" font-family="Times,serif" font-size="14.00"> path: 0:134 , </text>
<text text-anchor="middle" x="75.5" y="-262.3" font-family="Times,serif" font-size="14.00">134 0</text>
<text text-anchor="middle" x="75.5" y="-247.3" font-family="Times,serif" font-size="14.00">[134,]</text>
</g>
<!-- 1 -->
<g id="node3" class="node">
<title>1</title>
<ellipse fill="#ff3030" stroke="black" stroke-width="7.17" cx="75.5" cy="-75.5" rx="75.5" ry="75.5"/>
<text text-anchor="middle" x="75.5" y="-101.8" font-family="Times,serif" font-size="14.00">1 #1295</text>
<text text-anchor="middle" x="75.5" y="-86.8" font-family="Times,serif" font-size="14.00">fin: 0:134 , </text>
<text text-anchor="middle" x="75.5" y="-71.8" font-family="Times,serif" font-size="14.00"> path: 0:1161 , </text>
<text text-anchor="middle" x="75.5" y="-56.8" font-family="Times,serif" font-size="14.00">1161 134</text>
<text text-anchor="middle" x="75.5" y="-41.8" font-family="Times,serif" font-size="14.00">[1161,]</text>
</g>
<!-- 0&#45;&gt;1 -->
<g id="edge2" class="edge">
<title>0&#45;&gt;1</title>
<path fill="none" stroke="black" stroke-width="4.91" d="M75.5,-216.73C75.5,-199.2 75.5,-179.89 75.5,-161.36"/>
<polygon fill="black" stroke="black" stroke-width="4.91" points="79.79,-161.15 75.5,-151.15 71.21,-161.15 79.79,-161.15"/>
<text text-anchor="middle" x="271" y="-187.8" font-family="Times,serif" font-size="14.00">8080.0__&gt;metrics__200.0__get__prometheus&#45;kube__prometheus&#45;kube</text>
<text text-anchor="middle" x="271" y="-172.8" font-family="Times,serif" font-size="14.00">134 </text>
</g>
<!-- I -->
<g id="node2" class="node">
<title>I</title>
<ellipse fill="none" stroke="black" cx="75.5" cy="-400" rx="27" ry="18"/>
<text text-anchor="middle" x="75.5" y="-396.3" font-family="Times,serif" font-size="14.00">I</text>
</g>
<!-- I&#45;&gt;0 -->
<g id="edge1" class="edge">
<title>I&#45;&gt;0</title>
<path fill="none" stroke="black" d="M75.5,-381.99C75.5,-374.52 75.5,-365.21 75.5,-355.28"/>
<polygon fill="black" stroke="black" points="79,-355.2 75.5,-345.2 72,-355.2 79,-355.2"/>
</g>
<!-- 1&#45;&gt;1 -->
<g id="edge3" class="edge">
<title>1&#45;&gt;1</title>
<path fill="none" stroke="black" stroke-width="7.17" d="M148.8,-94.24C160.77,-91.55 169,-85.31 169,-75.5 169,-68.6 164.93,-63.47 158.36,-60.09"/>
<polygon fill="black" stroke="black" stroke-width="7.17" points="160.31,-54.13 148.8,-56.76 156.18,-65.98 160.31,-54.13"/>
<text text-anchor="middle" x="364.5" y="-79.3" font-family="Times,serif" font-size="14.00">8080.0__&gt;metrics__200.0__get__prometheus&#45;kube__prometheus&#45;kube</text>
<text text-anchor="middle" x="364.5" y="-64.3" font-family="Times,serif" font-size="14.00">1161 </text>
</g>
</g>
</svg>
